<svg xmlns="http://www.w3.org/2000/svg" xmlns:xlink="http://www.w3.org/1999/xlink" version="1.1" id="Layer_2" x="0px" y="0px" viewBox="0 0 1080 1080" style="enable-background:new 0 0 1080 1080;" xml:space="preserve">
<style type="text/css">
	.st0{fill:#F7F7F7;}
	.st1{fill:#F2F2F2;}
	.st2{fill:#2A94F4;}
	.st3{fill:#FFE3CA;}
	.st4{fill:#0A3B56;}
	.st5{fill:#0B4870;}
	.st6{fill:#0E538C;}
	.st7{fill:#FFFFFF;}
	.st8{fill:#FCD2B1;}
	.st9{fill:#CCE9FF;}
	.st10{fill:none;stroke:#FFFFFF;stroke-miterlimit:10;}
	.st11{fill:#073751;}
	.st12{fill:#FFBE55;}
	.st13{fill:#F9D4BB;}
	.st14{fill:#F9D9C2;}
	.st15{fill:#1A87D8;}
	.st16{fill:#B0E1FF;}
</style>
<g>
	<path class="st0" d="M694.94,147.57c29.79,0.35,59.59,6.75,86.57,19.46c19.16,9.02,36.56,20.84,50.48,35.8   c27.85,29.92,38.85,73.7,19.85,106.56c-15.86,27.42-50.77,47.09-51.19,78.66c-0.49,36.79,46.18,61.3,86.86,68.9   c40.69,7.6,86.31,9.06,116.86,35.27c26.29,22.56,33.3,58.7,24.56,88.95c-8.74,30.25-30.85,55.44-55.48,76.96   c-61.7,53.93-140.9,89.39-222.08,117.35c-171.51,59.08-357.55,87.88-544.94,84.36c-46.79-0.88-99.03-5.93-131.84-37.47   c-33.08-31.8-34.14-82.2-12.5-118.62s61.49-60.91,103.1-78.73s86.25-30.29,126.76-49.91c30.58-14.81,61.96-43.11,48.96-73.46   c-9.23-21.56-36.33-31.96-60.19-40.73c-33.71-12.39-67.28-26.8-94.84-48.59c-27.56-21.78-48.71-52-50.82-84.04   c-1.96-29.92,12.87-58.45,34.79-79.87s50.46-36.52,79.72-49.41C365.13,148.1,614.51,146.63,694.94,147.57z"/>
</g>
<path class="st1" d="M993.94,1027.61H86.06c-6.08,0-11.06-4.98-11.06-11.06v-57.5c0-6.08,4.98-11.06,11.06-11.06h907.89  c6.08,0,11.06,4.98,11.06,11.06v57.5C1005,1022.63,1000.02,1027.61,993.94,1027.61z"/>
<g>
	<polygon class="st2" points="893.95,961.4 186.05,961.4 206.75,941.44 227.44,921.48 864.13,921.48 879.03,941.44  "/>
	<path class="st3" d="M839.53,293.61l2.69-15.24l-3.65-22.96c0,0,5.76-9.38,10.94-14.49c2.14,2.14,3.21,24.97,3.21,24.97   s4.28-4.64,7.13-6.78c1.43,3.21-4.99,14.98-4.99,14.98l-7.85,19.88L839.53,293.61z"/>
	<path class="st3" d="M648.86,498.54c-0.91,2.23-11.55,15.92-12.49,19.36c-0.94,3.43,3.43,9.99,3.43,9.99L652,515.72   c0,0,0.24,3.57,1.52,8.12c1.31,0.8,2.22,0.2,2.22,0.2s0.62-21.74-1.56-25.49C651.98,494.8,648.86,498.54,648.86,498.54z"/>
	<path class="st4" d="M753.59,448.93l20.32,250.45h-15.38c0,0-41.97-186.51-36.7-206.9c5.27-20.39,16.72-53.27,16.72-53.27   L753.59,448.93z"/>
	<path class="st5" d="M748.09,477.08l-10.57,26.66l-15.69,195.23h-16.98c0,0-5.09-206.48,4.31-250.04   C716.89,413.13,748.09,477.08,748.09,477.08z"/>
	<path class="st6" d="M850.94,284.76c-14.48,59.79-91.2,92.03-91.2,92.03l-3.16,108.94l-13.95-14.22l-37.7,24.01   c0,0-11.96-78.91-17.03-96.56c-17.33,23.91-31.08,104.44-31.08,104.44s-6.15-0.38-11.59,0c3.23-82.55,32.68-142.56,32.68-142.56   l24.98-6l31.68,19.99c7.19-0.47,5.48-26.79,11.78-27.78l0.07-0.01c82.27-12.99,91.84-66.79,91.84-66.79   S844.42,282.09,850.94,284.76z"/>
	<path class="st7" d="M746.43,347.03v74.53l-43.53-66.72l23.24-5.58c7.18-0.47,13.92-1.22,20.22-2.21L746.43,347.03z"/>
	<polygon class="st8" points="733.14,335.36 738.2,348.16 732.4,364.73 715.83,351.95 715.83,330.59  "/>
	<polygon class="st9" points="604.75,566.46 531.39,566.46 458.04,566.46 391.61,921.48 531.39,921.48 671.18,921.48  "/>
	<polygon class="st9" points="622.64,711.11 812.55,711.11 864.13,921.48 643.74,921.48  "/>
	<polygon class="st9" points="437.61,756.52 275.11,756.52 227.44,921.48 437.61,921.48  "/>
	<g>
		<path class="st7" d="M525.99,666.38l-7.05,5.33l-7.36-13.16l16.62-11.99h14.72v55.46h-16.92V666.38z"/>
	</g>
	<g>
		<path class="st10" d="M530.82,671.22l-7.05,5.33l-7.36-13.16l16.62-11.99h14.72v55.46h-16.92V671.22z"/>
	</g>
	<g>
		<path class="st7" d="M359.49,822.61c2.51,0.78,4.45,2.25,5.84,4.39c1.38,2.14,2.08,4.52,2.08,7.13c0,3.24-0.54,6.02-1.61,8.34    c-1.08,2.32-2.51,4.22-4.29,5.68c-1.78,1.46-3.83,2.53-6.14,3.21c-2.31,0.68-4.72,1.02-7.23,1.02c-2.56,0-4.96-0.33-7.21-0.98    c-2.25-0.65-4.26-1.66-6.03-3.02c-1.78-1.36-3.28-3.07-4.5-5.13c-1.23-2.06-2.1-4.48-2.62-7.25l14.96-3.68    c0.21,1.57,0.68,2.86,1.41,3.88c0.73,1.02,1.8,1.53,3.21,1.53c1.2,0,2.1-0.42,2.7-1.25c0.6-0.83,0.9-1.88,0.9-3.13    c0-1.57-0.51-2.69-1.53-3.37c-1.02-0.68-2.39-1.02-4.11-1.02h-3.52v-11.99h4c3.13,0,4.7-1.49,4.7-4.46c0-0.36-0.05-0.74-0.16-1.14    c-0.11-0.39-0.27-0.77-0.51-1.14c-0.24-0.36-0.56-0.67-0.98-0.9c-0.42-0.23-0.91-0.35-1.49-0.35c-1.31,0-2.25,0.52-2.82,1.57    c-0.58,1.05-0.97,2.14-1.18,3.29l-14.57-3.68c0.68-2.72,1.68-5.07,3.02-7.05c1.33-1.98,2.86-3.62,4.58-4.9    c1.72-1.28,3.63-2.23,5.72-2.86c2.09-0.63,4.26-0.94,6.5-0.94c2.04,0,4.11,0.29,6.23,0.86c2.12,0.57,4.03,1.49,5.76,2.74    c1.72,1.25,3.15,2.87,4.27,4.86c1.12,1.99,1.68,4.39,1.68,7.21c0,3.4-0.7,6.1-2.11,8.11c-1.41,2.01-3.06,3.41-4.93,4.19V822.61z"/>
	</g>
	<g>
		<path class="st10" d="M363.3,826.42c2.51,0.78,4.45,2.25,5.84,4.39c1.38,2.14,2.08,4.52,2.08,7.13c0,3.24-0.54,6.02-1.61,8.34    c-1.08,2.32-2.51,4.22-4.29,5.68c-1.78,1.46-3.83,2.53-6.14,3.21c-2.31,0.68-4.72,1.02-7.23,1.02c-2.56,0-4.96-0.33-7.21-0.98    c-2.25-0.65-4.26-1.66-6.03-3.02c-1.78-1.36-3.28-3.07-4.5-5.13c-1.23-2.06-2.1-4.48-2.62-7.25l14.96-3.68    c0.21,1.57,0.68,2.86,1.41,3.88c0.73,1.02,1.8,1.53,3.21,1.53c1.2,0,2.1-0.42,2.7-1.25c0.6-0.83,0.9-1.88,0.9-3.13    c0-1.57-0.51-2.69-1.53-3.37c-1.02-0.68-2.39-1.02-4.11-1.02h-3.52v-11.99h4c3.13,0,4.7-1.49,4.7-4.46c0-0.36-0.05-0.74-0.16-1.14    c-0.11-0.39-0.27-0.77-0.51-1.14c-0.24-0.36-0.56-0.67-0.98-0.9c-0.42-0.23-0.91-0.35-1.49-0.35c-1.31,0-2.25,0.52-2.82,1.57    c-0.58,1.05-0.97,2.14-1.18,3.29l-14.57-3.68c0.68-2.72,1.68-5.07,3.02-7.05c1.33-1.98,2.86-3.62,4.58-4.9    c1.72-1.28,3.63-2.23,5.72-2.86c2.09-0.63,4.26-0.94,6.5-0.94c2.04,0,4.11,0.29,6.23,0.86c2.12,0.57,4.03,1.49,5.76,2.74    c1.72,1.25,3.15,2.87,4.27,4.86c1.12,1.99,1.68,4.39,1.68,7.21c0,3.4-0.7,6.1-2.11,8.11c-1.41,2.01-3.06,3.41-4.93,4.19V826.42z"/>
	</g>
	<g>
		<path class="st7" d="M712,836.24l17.86-17.94c0.89-0.94,1.67-1.94,2.35-3.02c0.68-1.07,1.02-2.1,1.02-3.09    c0-0.89-0.24-1.63-0.71-2.23c-0.47-0.6-1.18-0.9-2.12-0.9c-1.1,0-2,0.54-2.7,1.61c-0.71,1.07-1.06,2.62-1.06,4.66l-15.9-1.41    c0.31-3.29,1.02-6.16,2.12-8.62c1.1-2.45,2.53-4.48,4.31-6.07c1.77-1.59,3.81-2.79,6.11-3.6c2.3-0.81,4.78-1.21,7.44-1.21    c2.82,0,5.38,0.39,7.68,1.18c2.3,0.78,4.28,1.93,5.95,3.45c1.67,1.52,2.96,3.38,3.88,5.6c0.91,2.22,1.37,4.77,1.37,7.64    c0,1.83-0.25,3.52-0.74,5.09c-0.5,1.57-1.14,3.02-1.92,4.35c-0.78,1.33-1.66,2.56-2.62,3.68c-0.97,1.12-1.92,2.1-2.86,2.94    l-8.77,8.15h16.22v14.65H712V836.24z"/>
	</g>
	<g>
		<path class="st10" d="M718,842.24l17.86-17.94c0.89-0.94,1.67-1.94,2.35-3.02c0.68-1.07,1.02-2.1,1.02-3.09    c0-0.89-0.24-1.63-0.71-2.23c-0.47-0.6-1.18-0.9-2.12-0.9c-1.1,0-2,0.54-2.7,1.61c-0.71,1.07-1.06,2.62-1.06,4.66l-15.9-1.41    c0.31-3.29,1.02-6.16,2.12-8.62c1.1-2.45,2.53-4.48,4.31-6.07c1.77-1.59,3.81-2.79,6.11-3.6c2.3-0.81,4.78-1.21,7.44-1.21    c2.82,0,5.38,0.39,7.68,1.18c2.3,0.78,4.28,1.93,5.95,3.45c1.67,1.52,2.96,3.38,3.88,5.6c0.91,2.22,1.37,4.77,1.37,7.64    c0,1.83-0.25,3.52-0.74,5.09c-0.5,1.57-1.14,3.02-1.92,4.35c-0.78,1.33-1.66,2.56-2.62,3.68c-0.97,1.12-1.92,2.1-2.86,2.94    l-8.77,8.15h16.22v14.65H718V842.24z"/>
	</g>
	<g>
		<polygon class="st8" points="588.22,198.27 588.22,183.37 601.61,175.16 604.62,188.39 598.05,192.44 594.7,198.27   "/>
		<path class="st8" d="M455.21,378.55c0,0-8.67,5.22-8.67,5.95s1.94,9.69,1.94,9.69l4.56-2.73l3.62,0.36l2-3.09v-8.91L455.21,378.55    z"/>
		<path class="st11" d="M476.83,548.3c-1.49,5.21-16.06,18.16-16.06,18.16c5.39,0,12.34-1.28,16.06-4.26    c3.72-2.98,3.72-4.82,3.72-4.82v9.08h2.98l2.48-15.57L476.83,548.3z"/>
		<path class="st11" d="M586.13,548.3c1.49,5.21,16.06,18.16,16.06,18.16c-5.39,0-12.34-1.28-16.06-4.26    c-3.72-2.98-3.72-4.82-3.72-4.82v9.08h-2.98l-2.48-15.57L586.13,548.3z"/>
		<path class="st5" d="M574.86,460.46c-2.54-58.94-17.32-100.12-27.3-109.45c0,0-5.42-3.34-16.08-2.19    c-10.66-1.15-16.08,2.19-16.08,2.19c-9.98,9.33-24.76,50.51-27.3,109.45c-9.15,23.88-12.66,90.42-12.66,90.42H486    c0,0,19.74-82.14,18.73-88.75c4.47-12.79,14.77-46.14,21.88-74.19c3-0.01,6.36,0.02,9.76,0.1c7.11,28.03,17.38,61.33,21.85,74.1    c-1.02,6.61,18.73,88.75,18.73,88.75h10.56C587.51,550.89,584,484.35,574.86,460.46z"/>
		<g>
			<path class="st6" d="M632.76,276.23c-2.37-10.97-11.27-20.15-21.91-22.6c-7.61-1.75-15.59-0.28-23.3-1.41     c-7.87-1.16-15.33-5.12-20.82-11.05c-5.34-5.77-8.99-13.43-15.63-17.52c-6.69-4.12-15.18-3.75-22.7-1.62     c-6.31,1.79-12.48,4.85-16.78,9.95c-4.29,5.09-6.39,12.47-4.16,18.82c2.15,6.1,8.88,10.42,14.92,8.86     c18.1,4.32,34.89,14.35,47.47,28.45c6.76,7.57,12.63,16.51,21.52,21.18c9.72,5.1,22.24,3.88,30.86-3     C630.86,299.4,635.13,287.2,632.76,276.23z"/>
		</g>
		<path class="st5" d="M596.74,195.65c0.84,51.11-38.56,100.14-38.56,100.14l-10.35,55.23h-32.43c0,0-3.21-27.08-7.48-43.11    c-29.85,21.66-47.04,75.9-47.04,75.9s-3.56-0.83-7.84-4.03c11.99-44.44,44.55-96.09,44.55-96.09l21.87-3.74l8.77-1.49    c0,0,3.56,6.29,13.05,0c2.19-0.88,4.29-2.06,6.33-3.53h0.01c25.81-18.46,40.11-79.27,40.11-79.27S594.24,195.65,596.74,195.65z"/>
		<path class="st7" d="M547.63,274.92l-13.61,47.13l-14.56-42.11l8.77-1.49c0,0,3.56,6.29,13.05,0c2.19-0.88,4.29-2.06,6.33-3.53    H547.63z"/>
		<path class="st8" d="M527.46,268.54c-0.81,4.75-0.08,10.55-1.9,12.2c5.45,4.38,7.98,5.08,7.98,5.08l7.25-4.38    c0,0-2.61-10.33-0.79-13.98C535.96,267.44,527.46,268.54,527.46,268.54z"/>
		<path class="st3" d="M549.64,248.91c0,9.22-7.42,25.04-16.57,25.04s-16.57-15.82-16.57-25.04c0-9.22,7.42-16.69,16.57-16.69    S549.64,239.69,549.64,248.91z"/>
		<path class="st6" d="M555.27,244.2c-0.44-6.37-4.32-12.64-10.26-14.97c-4.26-1.67-9.06-1.24-13.53-0.23    c-4.47,1.01-12.96,3.46-12.96,3.46c-2.33,0.44-7.17,8.23-6.96,14.75c4.74-0.15,8.99-3.11,11.97-6.19    c2.32,2.44,5.25,4.37,8.37,5.64c6.08,2.47,12.8,2.79,19.35,2.66c0.76-0.02,1.56-0.04,2.24-0.39    C555.08,248.12,555.4,245.98,555.27,244.2z"/>
		<polygon class="st12" points="536.88,290.7 534.63,295.64 531.72,295.64 528.64,289.73 533.54,285.81   "/>
		<path class="st1" d="M540.79,281.43l2.51,3.85c0,0-6.61,10.09-6.78,9.66c-0.17-0.42-2.99-9.13-2.99-9.13L540.79,281.43z"/>
		<path class="st1" d="M533.54,285.81c0,0-5.15,9.33-5.32,9.14s-5.59-10.52-5.59-10.52l2.94-3.7L533.54,285.81z"/>
		<polygon class="st12" points="531.72,295.64 529.48,308.94 534.02,322.05 537.83,308.85 534.63,295.64   "/>
		<g>
			<g>
				<path class="st12" d="M544.39,129.73l-0.8,0.04l-0.93,0.07c-0.63,0.06-1.25,0.13-1.88,0.22c-1.26,0.17-2.51,0.38-3.76,0.61      c-2.5,0.46-5.01,1.01-7.48,1.61l0.51-0.74l0,0c1.1,4.12,2.63,8.17,4.64,11.84c1.98,3.69,4.52,7.01,7.61,9.47      c1.55,1.21,3.22,2.23,5.01,2.96c1.79,0.72,3.68,1.15,5.61,1.37c3.88,0.34,7.91-0.2,11.82-1.43c1.96-0.58,3.87-1.28,5.45-2.19      c0.79-0.45,1.48-0.96,1.94-1.47c0.45-0.52,0.65-0.95,0.71-1.38c0.19-0.86-0.63-2.51-1.89-3.9c-1.26-1.42-2.82-2.77-4.47-4.04      c-3.33-2.51-6.99-4.77-10.74-6.9c-1.86-1.09-3.77-2.11-5.68-3.14L544.39,129.73z M544.64,128.39l1.71,0.5l1.58,0.49l3.12,1.07      c2.08,0.74,4.12,1.56,6.16,2.41c4.05,1.76,8.06,3.7,11.86,6.21c1.9,1.25,3.77,2.63,5.47,4.41c0.85,0.89,1.67,1.89,2.35,3.12      c0.68,1.2,1.22,2.77,1.11,4.51c-0.09,1.76-0.96,3.36-1.94,4.46c-0.99,1.13-2.09,1.9-3.18,2.56c-2.19,1.29-4.4,2.1-6.6,2.8      c-4.42,1.31-9.19,1.98-14,1.41c-2.39-0.36-4.75-1.02-6.97-2.03c-2.22-1-4.23-2.41-5.98-4.02c-3.54-3.23-5.99-7.29-7.69-11.48      c-1.65-4.24-2.7-8.6-2.95-13.09l0,0l-0.08-0.6l0.59-0.14c2.51-0.61,5.02-1.15,7.56-1.62c1.27-0.24,2.54-0.45,3.83-0.62      c0.64-0.09,1.29-0.16,1.94-0.22l0.98-0.07L544.64,128.39z"/>
				<path class="st12" d="M598.53,104c-2.66-0.25-15.6,1.01-30.47,7.04c-14.87,6.03-24.77,14.18-26.5,16.19      c3.93,9.21,33.84,49.52,50.73,45.65c0.63-0.14,1.22-0.39,1.76-0.74C608.67,162.9,602.1,113.31,598.53,104z"/>
				<path class="st12" d="M597.14,106.97l0.82-0.76l0.76-0.63c0.51-0.41,1.02-0.81,1.55-1.19c1.04-0.77,2.11-1.51,3.18-2.22      c2.15-1.43,4.34-2.78,6.56-4.09l0.53-0.31l0.36,0.49l0,0c2.94,3.4,5.22,7.27,6.98,11.46c1.69,4.2,2.76,8.82,2.46,13.6      c-0.14,2.38-0.59,4.79-1.5,7.05c-0.89,2.27-2.13,4.38-3.6,6.31c-3.06,3.75-6.95,6.59-11.04,8.72c-2.07,1.03-4.21,1.99-6.69,2.58      c-1.24,0.29-2.56,0.49-4.06,0.37c-1.47-0.11-3.21-0.66-4.5-1.86c-1.29-1.18-1.99-2.68-2.34-4.01c-0.37-1.36-0.47-2.64-0.48-3.87      c-0.01-2.46,0.37-4.75,0.87-6.98c0.99-4.45,2.52-8.62,4.2-12.71c0.88-2.03,1.77-4.04,2.75-6.01l1.5-2.94l0.8-1.45L597.14,106.97      z M598.24,107.76l-1.99,6.07c-0.66,2.07-1.31,4.13-1.9,6.2c-1.21,4.13-2.27,8.3-2.91,12.42c-0.3,2.06-0.48,4.11-0.4,6.01      c0.06,1.88,0.62,3.63,1.35,4.12c0.35,0.26,0.78,0.43,1.47,0.49c0.68,0.05,1.54-0.06,2.41-0.29c1.77-0.44,3.63-1.28,5.44-2.22      c3.66-1.84,6.94-4.25,9.48-7.19c1.24-1.49,2.29-3.12,3.08-4.88c0.78-1.76,1.27-3.66,1.54-5.61c0.5-3.92,0.02-8.07-1.12-12.1      c-1.11-4.03-2.83-8.01-4.9-11.74l0,0l0.88,0.18c-2.19,1.29-4.37,2.64-6.49,4.05c-1.06,0.7-2.11,1.43-3.13,2.18      c-0.51,0.37-1.01,0.76-1.5,1.15l-0.72,0.6L598.24,107.76z"/>
				<path class="st12" d="M569.11,112.22"/>
				<path class="st12" d="M595.85,105.7c-8.11-2.3-35.67-13.09-51.42,20.19C553.65,130.11,591.67,120.26,595.85,105.7z"/>
				<path class="st12" d="M552.7,114.98c0.15-5.94,8.36-23.17,26.55-11.96C572.94,111.87,552.7,114.98,552.7,114.98z"/>
				<path class="st12" d="M561.6,96.93L561.6,96.93c1.19-0.4,2.49,0.25,2.89,1.44l1.03,3.09c0.4,1.19-0.25,2.49-1.44,2.89v0      c-1.19,0.4-2.49-0.25-2.89-1.44l-1.03-3.09C559.77,98.63,560.41,97.33,561.6,96.93z"/>
			</g>
			<g>
				
					<rect x="597.6" y="168.13" transform="matrix(0.9365 -0.3507 0.3507 0.9365 -28.453 222.3463)" class="st12" width="4.23" height="43.21"/>
				<path class="st12" d="M595.55,206.28l18.18-6.81c3.92-1.47,8.29,0.52,9.75,4.44v0l-32.37,12.12l0,0      C589.64,212.11,591.63,207.74,595.55,206.28z"/>
			</g>
		</g>
		<polygon class="st13" points="601.61,175.16 592.71,183.96 596.75,191.6 604.62,188.39   "/>
		<path class="st14" d="M590.67,181.87c0,0,4.55-0.23,6.08-0.37c0.72,0.96-4.57,2.55-5.49,3.32s-3.04,6.79-3.04,6.79v-8.23    L590.67,181.87z"/>
		<polygon class="st7" points="579.25,134.67 584.7,131.8 583.66,137.87 588.07,142.17 581.97,143.05 579.25,148.58 576.52,143.05     570.43,142.17 574.84,137.87 573.79,131.8   "/>
	</g>
	<g>
		<path class="st8" d="M343.04,603.91l24.95,133.25h6.73c0,0,8.29-61.52-8.96-75.13c7.16-34.58,5.45-51.01,1.64-70.01    C363.93,574.71,343.04,603.91,343.04,603.91z"/>
		<path class="st8" d="M318.18,603.76c-6.67,22.92,9.58,133.4,9.58,133.4h6.73c0,0,13.11-53.1-1.97-72.57    c5.49-25.94,12.07-59.66,10.51-69.65C341.48,584.95,318.18,603.76,318.18,603.76z"/>
		<path class="st5" d="M348.54,505.07c10.16,9.23,27.94,21.14,23.75,98.35c-13.59,10.15-51.3,16.77-59.13,3.97    c0.44-56.47,4.12-93.9,9.23-102.32C327.5,496.65,348.54,505.07,348.54,505.07z"/>
		<path class="st8" d="M300.71,369.1l0.62-15.18c0,0-3.36-3.98-4.51-10.71c-1.02-6,0.01-8.55,0.01-8.55l15.03-9.4l0.31,15.18    c0,0,0.77-4.03,4.8-6.66c0,1.86-4.03,17.19-5.73,19.21c-1.7,2.01-2.48,16.57-2.48,16.57L300.71,369.1z"/>
		<path class="st8" d="M391.61,529.04l4.3,19.26l6.07,9.08c0,0,0.47-5.04-0.85-6.24c2.66,1.73,7.57,8.5,7.57,8.5    s2.12-8.37,1.46-10.36c-0.66-1.99-9.21-6.51-9.21-6.51l-2.48-13.73H391.61z"/>
		<path class="st2" d="M345.82,440.26h-13.21c0,0-14.21,18.69-19.19,23.93c-1.5,9.72,4.05,14.18,4.05,14.18l4.92,26.15h26.15    c0,0,11.08-31.07,11.69-33.84c16.76,17.26,28.61,42.16,31.38,62.15c5.54,1.54,8.95-1.14,8.95-1.14s-12.06-82.78-41.73-91.43    C345.82,440.26,345.82,440.26,345.82,440.26z"/>
		<path class="st5" d="M351.54,385.33c-1.58-8.61,12-13.19,18.38-8.76c6.41,4.46,38.87,29.72,7.75,62.45    c-5.89-0.57-41.49-6.89-41.49-6.89S326.99,380.88,351.54,385.33z"/>
		<polygon class="st8" points="351.55,427.05 342.92,441.26 341.58,449.74 360.02,444.25 362.72,424.81   "/>
		<path class="st3" d="M347.54,390.53c0,0-14.15,17.57-7.81,38.07c12.2,2.93,20.01,3.9,29.77-3.42c9.76-7.32,6.92-21.01,6.92-21.01    l-21.56-20.37L347.54,390.53z"/>
		<path class="st5" d="M354.86,383.8c-10.74,3.29-11.93,12.58-11.93,12.58l25.45,11.49c0,0,7.86-9.94,6.11-15.42    C372.73,386.98,354.86,383.8,354.86,383.8z"/>
		<path class="st5" d="M372.29,400.26l2.99,19.47c0,0,6.9-9.06,6.39-10.82c-0.52-1.75-3.3-13.07-3.3-13.07L372.29,400.26z"/>
		
			<ellipse transform="matrix(0.7071 -0.7071 0.7071 0.7071 -187.3973 388.068)" class="st3" cx="374.74" cy="420.24" rx="5.97" ry="3.55"/>
		<path class="st2" d="M336.63,441.21c-7.26-7.26-25.61-30.46-27.03-75.35c-4.84,0-9.27,0-9.27,0s-6.57,49.73,23.85,88.1    C332.13,450.91,336.63,441.21,336.63,441.21z"/>
		<path class="st5" d="M327.76,737.16c0,0-11.93,13.37-35.47,19.41c9.54,0,30.22,0,30.22,0l5.25-6.04v6.04h6.73v-19.41H327.76z"/>
		<path class="st5" d="M367.99,737.16c0,0-11.93,13.37-35.47,19.41c9.54,0,30.22,0,30.22,0l5.25-6.04v6.04h6.73v-19.41H367.99z"/>
	</g>
	<g>
		<path class="st5" d="M740.88,292.09c1.5,4.03,0.75,16.32-4.12,17.28c-4.87,0.96-9.18-18.59-9.18-18.59L740.88,292.09z"/>
		<path class="st5" d="M709.56,284.76c-7.99,1.88-17.33,6.37-18.28,11.44c-0.95,5.08-0.57,16.4,1.33,19.72    c1.9,3.32,12.62,22.5,20.31,21.3c7.69-1.39,5.79-40.24,5.79-40.24L709.56,284.76z"/>
		<path class="st3" d="M734.58,287.84c0.41,1.69,6.84,29.76,9.58,41.72c0.74,3.22-0.94,6.53-3.95,7.71    c-7.07,2.78-19.92,6.14-29-1.31c-15.26-26.42-11.65-39.5-11.13-41.12S734.58,287.84,734.58,287.84z"/>
		<path class="st5" d="M707.66,302.45c4.76-0.2,40.96-0.78,38.67-17.18c0,0-1.56-11.32-3.64-11.32c-0.17,0.98-0.74,5.86-4.74,7.03    c0.38-2.93-2.48-6.25-2.48-6.25s-0.57,7.22-13.52,7.61S694.71,288.98,707.66,302.45z"/>
		
			<ellipse transform="matrix(0.8999 -0.4362 0.4362 0.8999 -69.43 338.5342)" class="st3" cx="702.56" cy="320.47" rx="4.33" ry="6.07"/>
		<path class="st5" d="M709.56,300.89c-0.19,3.71-3.81,13.39-3.81,13.39l0.76,5.15c0,0-4.57,2.34-5.14,0s-5.14-26.94-5.14-26.94    l6.67-1.72L709.56,300.89z"/>
	</g>
	<polygon class="st2" points="738.55,370.54 738.2,377.5 734.02,378.66 727.02,370.06 732.4,364.73  "/>
	<path class="st1" d="M732.4,364.73l-2.67,13.93c0,0-15.77-18.36-15.63-19.39c0.14-1.03,1.73-8.08,1.73-8.08L732.4,364.73z"/>
	<path class="st1" d="M732.4,364.73c0,0,7.65,11.1,7.36,10.61c-0.29-0.49,2.87-24.73,2.87-24.73l-4.43-2.44L732.4,364.73z"/>
	<polygon class="st2" points="734.02,378.66 734.97,404 746.43,421.56 746.43,403.01 738.2,377.5  "/>
	<polygon class="st5" points="721.83,698.97 761.6,711.11 703.47,711.11 704.85,698.97  "/>
	<polygon class="st5" points="773.91,699.38 815.08,711.52 756.96,711.52 758.33,699.38  "/>
	<polygon class="st6" points="919.65,961.4 160.35,961.4 182.55,941.44 903.65,941.44  "/>
</g>
<g>
	<g>
		<g>
			<path class="st15" d="M953.82,901.65c-5.38-25.09-21.96-47.55-44.34-60.09c11.97,22.62,26.31,43.99,42.7,63.64L953.82,901.65z"/>
		</g>
		<g>
			<path class="st2" d="M959.82,911.08c-21.33-29.82-32.02-67.09-29.75-103.69c13.82,33.78,24.26,68.94,31.12,104.79L959.82,911.08z     "/>
		</g>
		<g>
			<path class="st15" d="M953.72,912.1c-0.65-18.35-1.3-36.83,1.58-54.96c2.88-18.13,9.54-36.1,21.88-49.7     c1.88,37.56-7.21,75.61-25.86,108.27L953.72,912.1z"/>
		</g>
		<g>
			<path class="st16" d="M954.6,913.74c-12.01-34.69-10.04-74.01,5.37-107.33c9.64,34.81,1.11,71.77-7.42,106.86L954.6,913.74z"/>
		</g>
		<g>
			<path class="st2" d="M956.19,900.89c3.32-30.43,23.63-58.45,51.52-71.06c-11.32,30.36-30.66,57.7-55.53,78.47L956.19,900.89z"/>
		</g>
	</g>
	<path class="st9" d="M984.93,895.56l-3.45,59.1c0,2.85-2.33,5.18-5.18,5.18h-40.98c-2.85,0-5.18-2.33-5.18-5.18l-0.78-13.36   l-2.67-45.74c0-2.85,2.33-5.18,5.18-5.18h47.89c1.87,0,3.52,1.01,4.43,2.5v0C984.65,893.66,984.93,894.58,984.93,895.56z"/>
	<g>
		<path class="st9" d="M984.93,895.56l-3.45,59.1c0,2.85-2.33,5.18-5.18,5.18h-40.98c-2.85,0-5.18-2.33-5.18-5.18l-0.78-13.36    c19.11-5.47,38.83-29.1,54.82-48.42C984.65,893.66,984.93,894.58,984.93,895.56z"/>
	</g>
</g>
<g>
	<g>
		<g>
			<path class="st15" d="M118.46,891.16c-6.35-29.61-25.92-56.13-52.34-70.93c14.13,26.7,31.05,51.92,50.4,75.12L118.46,891.16z"/>
		</g>
		<g>
			<path class="st2" d="M125.55,902.29c-25.17-35.2-37.8-79.19-35.12-122.38c16.31,39.87,28.64,81.37,36.73,123.68L125.55,902.29z"/>
		</g>
		<g>
			<path class="st15" d="M118.35,903.5c-0.77-21.66-1.53-43.47,1.87-64.87c3.4-21.4,11.27-42.61,25.82-58.66     c2.22,44.33-8.51,89.24-30.53,127.78L118.35,903.5z"/>
		</g>
		<g>
			<path class="st16" d="M119.38,905.43c-14.17-40.95-11.85-87.35,6.34-126.67c11.37,41.09,1.31,84.7-8.76,126.13L119.38,905.43z"/>
		</g>
		<g>
			<path class="st2" d="M121.26,890.26c3.91-35.92,27.88-68.98,60.8-83.88c-13.36,35.84-36.19,68.1-65.54,92.62L121.26,890.26z"/>
		</g>
	</g>
	<path class="st9" d="M155.18,883.97l-4.07,69.76c0,3.36-2.75,6.11-6.11,6.11H96.62c-3.36,0-6.11-2.75-6.11-6.11l-0.92-15.77   l-3.15-53.99c0-3.36,2.75-6.11,6.11-6.11h56.52c2.2,0,4.15,1.19,5.22,2.95v0.01C154.85,881.73,155.18,882.82,155.18,883.97z"/>
	<g>
		<path class="st9" d="M155.18,883.97l-4.07,69.76c0,3.36-2.75,6.11-6.11,6.11H96.62c-3.36,0-6.11-2.75-6.11-6.11l-0.92-15.77    c22.56-6.45,45.83-34.35,64.7-57.15C154.85,881.73,155.18,882.82,155.18,883.97z"/>
	</g>
</g>
<g>
	
		<rect x="764.41" y="231.49" transform="matrix(0.8999 -0.4362 0.4362 0.8999 -27.2384 358.8088)" class="st2" width="6.79" height="14.48"/>
</g>
<g>
	
		<rect x="373.29" y="276.8" transform="matrix(0.366 -0.9306 0.9306 0.366 -19.2658 533.1901)" class="st2" width="16.8" height="7.88"/>
</g>
<g>
	
		<rect x="964.3" y="477.7" transform="matrix(0.8999 -0.4362 0.4362 0.8999 -115.5925 471.4129)" class="st2" width="9.14" height="19.49"/>
</g>
<g>
	
		<rect x="187.99" y="523.74" transform="matrix(0.366 -0.9306 0.9306 0.366 -365.9825 520.8781)" class="st2" width="22.61" height="10.6"/>
</g>
<g>
	
		<rect x="831.72" y="581.79" transform="matrix(0.8999 -0.4362 0.4362 0.8999 -175.5846 425.0364)" class="st2" width="12.3" height="26.24"/>
</g>
<g>
	
		<rect x="580.63" y="362.43" transform="matrix(0.366 -0.9306 0.9306 0.366 33.8453 788.811)" class="st2" width="30.44" height="14.27"/>
</g>
<g>
	
		<rect x="886.04" y="231.69" transform="matrix(0.8999 -0.4362 0.4362 0.8999 -19.2018 415.0563)" class="st2" width="16.56" height="35.32"/>
</g>
<g>
	
		<rect x="110.27" y="430.66" transform="matrix(0.366 -0.9306 0.9306 0.366 -326.8143 400.8093)" class="st2" width="40.98" height="19.22"/>
</g>
<g>
	
		<rect x="295.52" y="165.97" transform="matrix(0.8999 -0.4362 0.4362 0.8999 -52.0498 152.7634)" class="st2" width="22.29" height="47.54"/>
</g>
<g>
	
		<rect x="418.17" y="437.91" transform="matrix(0.5 -0.866 0.866 0.5 -169.6825 586.6277)" class="st12" width="10.04" height="4.71"/>
</g>
<g>
	
		<rect x="848.21" y="454.48" transform="matrix(0.8252 -0.5648 0.5648 0.8252 -111.2533 561.1021)" class="st12" width="5.46" height="11.65"/>
</g>
<g>
	
		<rect x="961.84" y="556.57" transform="matrix(0.5 -0.866 0.866 0.5 -0.4513 1118.7024)" class="st12" width="13.52" height="6.34"/>
</g>
<g>
	
		<rect x="971.05" y="292.25" transform="matrix(0.8252 -0.5648 0.5648 0.8252 0.8777 603.0123)" class="st12" width="7.35" height="15.69"/>
</g>
<g>
	
		<rect x="234.27" y="584.36" transform="matrix(0.8252 -0.5648 0.5648 0.8252 -294.2126 239.1101)" class="st12" width="9.9" height="21.11"/>
</g>
<g>
	
		<rect x="197.75" y="314.32" transform="matrix(0.5 -0.866 0.866 0.5 -171.7865 346.5591)" class="st12" width="32.98" height="15.46"/>
</g>
</svg>