<svg width="37" height="37" viewBox="0 0 37 37" fill="none" xmlns="http://www.w3.org/2000/svg">
<circle cx="18.5" cy="18.5" r="16.5" stroke="#C9C9C9" stroke-width="4"/>
<path d="M19.8906 13.6787V29H15.7983V13.6787H19.8906ZM15.5435 9.68555C15.5435 9.09082 15.7511 8.59993 16.1665 8.21289C16.5819 7.82585 17.1388 7.63232 17.8374 7.63232C18.5265 7.63232 19.0788 7.82585 19.4941 8.21289C19.9189 8.59993 20.1313 9.09082 20.1313 9.68555C20.1313 10.2803 19.9189 10.7712 19.4941 11.1582C19.0788 11.5452 18.5265 11.7388 17.8374 11.7388C17.1388 11.7388 16.5819 11.5452 16.1665 11.1582C15.7511 10.7712 15.5435 10.2803 15.5435 9.68555Z" fill="#C9C9C9"/>
</svg>
